<?xml version="1.0" encoding="UTF-8" standalone="no"?>
<!-- Created with Inkscape (http://www.inkscape.org/) -->

<svg
   xmlns:dc="http://purl.org/dc/elements/1.1/"
   xmlns:cc="http://creativecommons.org/ns#"
   xmlns:rdf="http://www.w3.org/1999/02/22-rdf-syntax-ns#"
   xmlns:svg="http://www.w3.org/2000/svg"
   xmlns="http://www.w3.org/2000/svg"
   xmlns:sodipodi="http://sodipodi.sourceforge.net/DTD/sodipodi-0.dtd"
   xmlns:inkscape="http://www.inkscape.org/namespaces/inkscape"
   width="109.78046mm"
   height="13.181277mm"
   viewBox="0 0 109.78046 13.181277"
   version="1.1"
   id="svg8"
   inkscape:version="0.92.4 (5da689c313, 2019-01-14)"
   sodipodi:docname="logo.svg">
  <defs
     id="defs2" />
  <sodipodi:namedview
     id="base"
     pagecolor="#ffffff"
     bordercolor="#666666"
     borderopacity="1.0"
     inkscape:pageopacity="0.0"
     inkscape:pageshadow="2"
     inkscape:zoom="0.7"
     inkscape:cx="204.35281"
     inkscape:cy="-148.33279"
     inkscape:document-units="mm"
     inkscape:current-layer="layer1"
     showgrid="false"
     fit-margin-top="0"
     fit-margin-left="0"
     fit-margin-right="0"
     fit-margin-bottom="0"
     inkscape:window-width="1366"
     inkscape:window-height="731"
     inkscape:window-x="0"
     inkscape:window-y="0"
     inkscape:window-maximized="1" />
  <metadata
     id="metadata5">
    <rdf:RDF>
      <cc:Work
         rdf:about="">
        <dc:format>image/svg+xml</dc:format>
        <dc:type
           rdf:resource="http://purl.org/dc/dcmitype/StillImage" />
        <dc:title></dc:title>
      </cc:Work>
    </rdf:RDF>
  </metadata>
  <g
     inkscape:label="Camada 1"
     inkscape:groupmode="layer"
     id="layer1"
     transform="translate(-52.522519,-54.362912)">
    <path
       style="fill:#000000;stroke-width:0.26458335"
       d="m 55.344517,67.002034 c -3.540819,-1.86922 -3.821006,-9.29979 -0.43516,-11.54044 1.21463,-0.8038 2.98305,-1.05935 4.30704,-0.6224 0.76454,0.25233 0.95741,0.4508 0.95741,0.98523 0,0.53378 -0.0937,0.63056 -0.46302,0.47815 -2.32656,-0.96019 -3.79551,-0.47659 -4.82864,1.58969 -0.532997,1.06599 -0.659773,1.7083 -0.652772,3.30729 0.01359,3.10328 1.188332,4.91077 3.304252,5.08402 l 0.92039,0.0754 v -1.98438 c 0,-1.85643 -0.0384,-1.98983 -0.59531,-2.06892 -0.38258,-0.0543 -0.59531,-0.26707 -0.59531,-0.59532 0,-0.44272 0.19386,-0.51076 1.45521,-0.51076 h 1.4552 v 3.01185 c 0,2.89974 -0.0222,3.01779 -0.59531,3.17139 -1.20959,0.32416 -3.2455,0.14107 -4.23398,-0.38075 z m 20.96888,0.37499 c -1.92034,-0.63265 -2.38125,-1.54505 -2.38125,-4.71377 v -2.25745 h -1.05834 c -0.9525,0 -1.05833,-0.0661 -1.05833,-0.66146 0,-0.59531 0.10583,-0.66146 1.05833,-0.66146 h 1.05834 v -1.71979 -1.71979 h 0.79375 0.79375 v 1.71979 1.71979 h 1.85208 c 1.79917,0 1.85208,0.0189 1.85208,0.66146 0,0.64256 -0.0529,0.66146 -1.85208,0.66146 h -1.85208 v 2.49854 c 0,2.28198 0.051,2.53423 0.58804,2.91041 0.67138,0.47026 1.71371,0.5296 2.70202,0.15385 0.61304,-0.23308 0.67869,-0.19589 0.67869,0.38444 0,0.51703 -0.19371,0.69627 -0.99219,0.91801 -1.05468,0.2929 -1.54339,0.31663 -2.18281,0.10597 z m 16.59041,-0.24978 c -1.06571,-0.57783 -1.24458,-1.31815 -1.24458,-5.15117 v -3.42236 h 0.66146 0.66146 v 3.15337 c 0,1.73434 0.0735,3.34499 0.16342,3.57922 0.49056,1.27839 2.40667,0.90435 3.63816,-0.71021 0.64095,-0.84033 0.69633,-1.11616 0.69633,-3.46766 0,-2.54864 0.002,-2.55472 0.66146,-2.55472 h 0.66146 v 4.36563 4.36562 h -0.66146 c -0.58227,0 -0.66146,-0.11329 -0.66146,-0.94639 v -0.94639 l -0.83715,0.83715 c -1.34837,1.34837 -2.42948,1.60799 -3.7391,0.89791 z m 33.139713,0.0535 c -2.12,-0.69222 -2.79737,-3.72765 -1.34346,-6.02024 1.0309,-1.62555 2.248,-2.34217 3.97795,-2.34217 1.6451,0 2.66872,0.80002 2.66872,2.08575 0,1.55391 -1.21349,2.19842 -4.35515,2.3131 l -2.39172,0.0873 -0.0799,0.89524 c -0.0984,1.10211 0.91794,2.43662 2.04405,2.68396 0.90999,0.19987 2.36411,-0.35501 3.15499,-1.20391 0.31011,-0.33287 0.64374,-0.52532 0.7414,-0.42766 0.21284,0.21284 -0.6174,1.17571 -1.35341,1.56961 -0.96216,0.51493 -2.15707,0.65497 -3.06344,0.35902 z m 3.5825,-4.7731 c 2.25854,-0.94367 0.95709,-3.68708 -1.52795,-3.22089 -1.21092,0.22717 -2.43695,1.2397 -3.11832,2.57528 l -0.52294,1.02505 h 2.13054 c 1.25176,0 2.50512,-0.1565 3.03867,-0.37944 z m 4.89501,4.7766 c -1.95719,-0.63897 -2.7003,-3.27285 -1.55614,-5.51559 1.01856,-1.99654 2.21887,-2.84611 4.02459,-2.84857 1.0675,-0.002 1.40741,0.12854 2.07088,0.792 0.43656,0.43657 0.83621,0.79375 0.88811,0.79375 0.0519,0 0.13204,-0.31824 0.17808,-0.7072 0.0461,-0.38896 0.21804,-0.75123 0.38221,-0.80505 0.19162,-0.0628 0.0646,0.97181 -0.35482,2.89002 -0.35931,1.64332 -0.71714,3.55341 -0.79516,4.24463 -0.078,0.69122 -0.23276,1.25677 -0.34385,1.25677 -0.28576,0 -0.4938,-1.92903 -0.24288,-2.25217 0.11436,-0.14729 0.37713,-1.00018 0.58393,-1.89531 0.48539,-2.10105 0.13548,-3.09072 -1.30565,-3.69286 -1.31311,-0.54866 -2.74228,-0.0966 -3.82215,1.20905 -1.51103,1.82692 -1.65244,4.18018 -0.33063,5.50199 0.57585,0.57585 0.83645,0.64706 1.96952,0.53819 0.71822,-0.069 1.52239,-0.32143 1.78703,-0.56093 0.60995,-0.552 1.01229,-0.56935 0.55981,-0.0241 -0.81741,0.98491 -2.48374,1.47018 -3.69288,1.07542 z m 14.68508,0.14944 c -0.9938,-0.20746 -1.97024,-1.1307 -2.27631,-2.1523 -0.93212,-3.11113 1.45554,-6.35844 4.67758,-6.36169 1.06275,-10e-4 1.46297,0.12641 1.91823,0.61101 0.59094,0.62903 0.75794,1.23972 0.33901,1.23972 -0.12995,0 -0.30487,-0.17877 -0.38872,-0.39727 -0.0838,-0.2185 -0.56599,-0.59447 -1.07143,-0.8355 -0.85908,-0.40967 -0.99712,-0.4084 -2.1173,0.0194 -3.82466,1.46065 -4.11118,7.29878 -0.35821,7.29878 1.11654,0 2.11944,-0.46036 2.78014,-1.27616 0.1804,-0.22275 0.40787,-0.32512 0.5055,-0.2275 0.21279,0.21279 -0.61755,1.17569 -1.35348,1.56955 -0.73622,0.39401 -2.02738,0.64298 -2.65501,0.51196 z m -84.269803,-3.88514 v -3.83646 h -1.19062 c -1.01424,0 -1.19063,-0.0784 -1.19063,-0.52916 0,-0.47877 0.17639,-0.52917 1.85209,-0.52917 h 1.85208 v 3.70417 3.70416 h 1.32292 c 1.23472,0 1.32291,0.0441 1.32291,0.66146 0,0.64676 -0.0441,0.66146 -1.98437,0.66146 h -1.98438 z m 16.93334,-2.51354 v -6.35 h 0.79375 0.79375 v 2.64038 2.64038 l 1.19268,-0.84067 c 1.59879,-1.12694 2.86377,-1.11476 3.8933,0.0375 0.72917,0.81608 0.73485,0.85103 0.73485,4.52243 v 3.69999 h -0.63017 c -0.62575,0 -0.63092,-0.024 -0.73641,-3.40952 -0.11709,-3.75828 -0.30753,-4.26339 -1.60736,-4.26339 -0.56778,0 -1.08374,0.29125 -1.81969,1.0272 l -1.0272,1.02721 v 2.80925 2.80925 h -0.79375 -0.79375 z m 19.314583,0 v -6.35 h 0.79375 0.79375 v 2.83003 2.83003 l 0.86459,-0.838 c 1.27001,-1.23093 2.31831,-1.52911 3.46423,-0.98533 2.57016,1.21962 2.37045,6.385 -0.31748,8.2115 -0.83906,0.57015 -1.24968,0.65177 -3.279,0.65177 h -2.31984 z m 4.67702,4.62387 c 2.11274,-1.38432 1.97065,-5.94679 -0.1852,-5.94679 -0.56615,0 -1.08527,0.29763 -1.84598,1.05834 -1.0567,1.0567 -1.05834,1.06156 -1.05834,3.1556 0,1.77137 0.072,2.11751 0.46302,2.22756 0.68361,0.19237 1.93868,-0.044 2.6265,-0.49471 z m 9.70927,1.2187 c -1.06269,-0.48257 -1.606,-0.98397 -1.34693,-1.24304 0.0703,-0.0703 0.57506,0.17577 1.12175,0.54677 2.03979,1.38423 5.64972,0.6698 6.32554,-1.25188 0.57615,-1.63828 -0.43936,-2.5484 -3.76571,-3.37488 -1.71309,-0.42565 -2.26122,-1.1044 -2.0935,-2.5924 0.10391,-0.92187 0.33271,-1.39195 0.94286,-1.93712 0.84177,-0.75212 2.30097,-1.2777 3.55435,-1.28021 0.8633,-0.002 2.42369,0.60414 2.69767,1.04746 0.33536,0.54263 -0.10408,0.64085 -0.65135,0.14558 -0.66356,-0.60052 -2.81908,-0.82527 -4.0425,-0.4215 -1.19797,0.39536 -1.76772,1.04673 -1.96183,2.24286 -0.20817,1.28284 0.37452,1.90532 2.27629,2.4317 3.04308,0.8423 3.72374,1.35895 3.72374,2.82652 0,2.66599 -3.73676,4.24226 -6.78038,2.86014 z m 26.1787,-0.0879 c 0.0776,-0.32742 0.4657,-2.14312 0.86243,-4.03489 0.39672,-1.89177 0.83683,-3.55865 0.978,-3.70417 0.16629,-0.17141 0.19103,0.1081 0.0702,0.79375 l -0.18645,1.05833 0.74967,-0.69527 c 0.87406,-0.81064 1.73507,-1.2891 2.31978,-1.2891 0.72254,0 0.44665,0.45654 -0.37522,0.62092 -0.43422,0.0868 -1.21288,0.54821 -1.73036,1.02526 -0.95859,0.8837 -1.24833,1.66071 -1.97593,5.29913 -0.16733,0.83675 -0.42777,1.52136 -0.57875,1.52136 -0.15098,0 -0.21101,-0.26789 -0.1334,-0.59532 z m 13.14543,0.40335 c 0,-0.35665 2.44305,-11.58103 2.54488,-11.69224 0.47516,-0.5189 0.16317,1.95464 -0.6146,4.87275 -0.1238,0.46448 -0.0483,0.44418 0.61798,-0.16611 1.07882,-0.98821 1.76729,-1.2891 2.94959,-1.2891 1.32841,0 1.91048,0.6222 1.91048,2.04223 0,1.06746 -0.9488,6.13852 -1.1945,6.38422 -0.39476,0.39476 -0.35679,-0.44111 0.12481,-2.74732 0.74192,-3.55282 0.71715,-4.49287 -0.13303,-5.04993 -0.58928,-0.38611 -0.8058,-0.39769 -1.73044,-0.0925 -0.58129,0.19184 -1.45305,0.78732 -1.93726,1.32328 -0.85879,0.95058 -1.05347,1.54523 -1.88135,5.74682 -0.0932,0.47294 -0.27904,0.85989 -0.413,0.85989 -0.13396,0 -0.24356,-0.0864 -0.24356,-0.19196 z M 64.917907,55.753434 c -0.25137,-0.30288 -0.2712,-0.54126 -0.0715,-0.85989 0.66926,-1.06797 2.27647,-0.36954 1.68648,0.73287 -0.34772,0.64971 -1.13009,0.71125 -1.61496,0.12702 z"
       id="path21"
       inkscape:connector-curvature="0" />
  </g>
</svg>
